<svg width="30" height="30" viewBox="0 0 30 30" fill="none" xmlns="http://www.w3.org/2000/svg">
<path d="M6.64867 18.1298L5.60441 22.0282L1.78765 22.109C0.646996 19.9933 0 17.5727 0 15.0005C0 12.5131 0.604926 10.1674 1.6772 8.10205H1.67802L5.07601 8.72502L6.56453 12.1026C6.25299 13.0109 6.08318 13.9859 6.08318 15.0005C6.0833 16.1016 6.28275 17.1565 6.64867 18.1298Z" fill="#FBBB00"/>
<path d="M29.7376 12.1978C29.9098 13.1051 29.9997 14.0422 29.9997 15C29.9997 16.0739 29.8868 17.1214 29.6717 18.1319C28.9415 21.5704 27.0335 24.5728 24.3903 26.6976L24.3895 26.6968L20.1096 26.4784L19.5038 22.697C21.2577 21.6684 22.6283 20.0588 23.3503 18.1319H15.3293V12.1978H23.4673H29.7376Z" fill="#518EF8"/>
<path d="M24.3899 26.6972L24.3907 26.698C21.8202 28.7642 18.5547 30.0005 15 30.0005C9.28764 30.0005 4.32115 26.8077 1.7876 22.109L6.64862 18.1299C7.91537 21.5106 11.1767 23.9173 15 23.9173C16.6434 23.9173 18.1831 23.473 19.5042 22.6975L24.3899 26.6972Z" fill="#28B446"/>
<path d="M24.5749 3.4533L19.7155 7.43161C18.3482 6.57696 16.732 6.08324 15.0004 6.08324C11.0905 6.08324 7.76817 8.60027 6.56488 12.1023L1.67831 8.10169H1.67749C4.17395 3.28848 9.20308 0 15.0004 0C18.64 0 21.9771 1.29645 24.5749 3.4533Z" fill="#F14336"/>
</svg>
