<svg width="49" height="49" viewBox="0 0 49 49" fill="none" xmlns="http://www.w3.org/2000/svg" className="hands-with-moneysa">
<path d="M22.1019 32.5571C22.4685 32.1905 22.4685 31.5973 22.1019 31.2307C21.7349 30.8652 21.1405 30.8652 20.7732 31.2307C20.407 31.5973 20.407 32.1905 20.7732 32.5571C21.1405 32.9226 21.7349 32.9226 22.1019 32.5571Z" fill="#828788"/>
<path d="M17.6553 10.3099C17.6553 15.9948 22.2894 20.6202 27.9854 20.6202C33.6814 20.6202 38.3155 15.9948 38.3155 10.3099C38.3155 4.62504 33.6814 0 27.9854 0C22.2894 0 17.6553 4.62504 17.6553 10.3099ZM36.4375 10.3099C36.4375 14.9613 32.6459 18.7455 27.9854 18.7455C23.3249 18.7455 19.5333 14.9613 19.5333 10.3099C19.5333 5.65888 23.3249 1.8747 27.9854 1.8747C32.6459 1.8747 36.4375 5.65888 36.4375 10.3099Z" fill="#828788"/>
<path d="M10.8169 47.7246C11.1809 48.0908 11.7735 48.0948 12.1423 47.7322L16.6953 43.2555C17.4688 42.4835 17.704 41.3405 17.3639 40.347L18.3432 39.4043C18.8705 38.896 19.5648 38.6158 20.2987 38.6158H32.7831C34.9979 38.6158 37.0913 37.7669 38.6783 36.2255C38.7436 36.1621 38.1826 36.8217 47.1954 26.0709C48.5321 24.4924 48.3321 22.1222 46.7492 20.7866C45.1761 19.4635 42.8196 19.6535 41.4792 21.2049L35.9376 26.8894C35.2379 26.0298 34.1708 25.4941 33.0179 25.4941H22.5458C21.0557 24.8718 19.4745 24.5569 17.8431 24.5569C13.3209 24.5569 9.37229 26.6414 7.25321 30.5498C6.36045 30.3809 5.41888 30.6505 4.74151 31.3265L0.274013 35.7985C-0.0907253 36.1636 -0.0914591 36.7543 0.272545 37.1206L10.8169 47.7246ZM17.8427 26.4312C19.2811 26.4312 20.6718 26.7202 21.977 27.29C22.0959 27.342 22.224 27.3688 22.3535 27.3688H33.0179C34.0362 27.3688 34.8963 28.1975 34.8963 29.2431C34.8963 30.2769 34.0538 31.1178 33.0179 31.1178H25.3558C24.8373 31.1178 24.4168 31.5375 24.4168 32.055C24.4168 32.5728 24.8373 32.9921 25.3558 32.9921H33.0179C35.0893 32.9921 36.7743 31.3104 36.7743 29.2431C36.7743 29.0783 36.7625 28.915 36.7412 28.7531C42.1019 23.2535 42.8578 22.4808 42.8901 22.4423C43.5594 21.6538 44.7475 21.5539 45.5379 22.2189C46.329 22.8866 46.4292 24.0717 45.7581 24.8645L37.3349 34.9144C36.105 36.0929 34.4901 36.7415 32.7831 36.7415H20.2987C19.0753 36.7415 17.9172 37.2084 17.0388 38.0555L16.2407 38.8242L8.88353 31.4818C10.603 28.2623 13.8295 26.4312 17.8427 26.4312ZM6.07056 32.6512C6.38026 32.3421 6.85582 32.2864 7.2334 32.5193C7.39595 32.6182 6.9292 32.1941 15.3674 40.6041C15.7427 40.9787 15.7226 41.5757 15.3725 41.925L11.491 45.7415L2.26356 36.4617L6.07056 32.6512Z" fill="#828788"/>
<path d="M26.8578 4.68656V5.78486C25.7647 6.17159 24.9795 7.2135 24.9795 8.43559C24.9795 9.98581 26.2432 11.2474 27.7968 11.2474C28.3146 11.2474 28.7358 11.6679 28.7358 12.1846C28.7358 12.7014 28.3146 13.1218 27.7968 13.1218C27.3958 13.1218 26.9624 12.8702 26.5775 12.4128C26.2436 12.0165 25.6513 11.9656 25.2543 12.2985C24.8573 12.6318 24.8059 13.2229 25.1398 13.6191C25.6418 14.215 26.2322 14.6303 26.8578 14.8397V15.9336C26.8578 16.4515 27.2783 16.8708 27.7968 16.8708C28.3153 16.8708 28.7358 16.4515 28.7358 15.9336V14.8353C29.8289 14.4482 30.6142 13.4063 30.6142 12.1846C30.6142 10.634 29.3505 9.37275 27.7968 9.37275C27.2791 9.37275 26.8578 8.95233 26.8578 8.43559C26.8578 7.91884 27.2791 7.49805 27.7968 7.49805C28.1296 7.49805 28.4808 7.66761 28.8125 7.98806C29.1853 8.34806 29.7798 8.33817 30.1405 7.96645C30.5012 7.59437 30.4913 7.00109 30.1188 6.64109C29.6422 6.18075 29.1651 5.92036 28.7358 5.77827V4.68656C28.7358 4.16872 28.3153 3.74902 27.7968 3.74902C27.2783 3.74902 26.8578 4.16872 26.8578 4.68656Z" fill="#828788"/>
</svg>
