<svg width="37" height="22" viewBox="0 0 37 22" fill="none" xmlns="http://www.w3.org/2000/svg" className="master-card">
<path d="M17.4888 19.948L17.7652 20.1627C15.8917 21.3656 13.6889 22.0051 11.4368 22C5.11888 22 0 17.0803 0 11C0 4.92527 5.11888 5.18006e-05 11.4299 5.18006e-05C13.7737 5.18006e-05 15.9533 0.672179 17.7606 1.8306C17.6715 1.90177 17.5866 1.97755 17.5062 2.05761C14.8039 4.30545 13.2499 7.56927 13.2499 11C13.2499 14.4307 14.7982 17.6946 17.49 19.948H17.4888ZM25.5713 5.18006e-05C23.3192 -0.00661563 21.1159 0.630498 19.2406 1.8306C19.3319 1.90627 19.4221 1.98194 19.495 2.05761C20.8298 3.16682 21.9008 4.5396 22.6352 6.08264C23.3697 7.62567 23.7503 9.30279 23.7513 11C23.7513 14.4263 22.203 17.689 19.5112 19.948C19.4196 20.0202 19.3274 20.0918 19.2348 20.1627C21.1079 21.3663 23.311 22.0059 25.5632 22C31.8811 22 37 17.0803 37 11C37 4.92527 31.8811 5.18006e-05 25.5701 5.18006e-05H25.5713ZM18.5006 2.35917C17.139 3.38624 16.0382 4.69815 15.2817 6.19547C14.5252 7.69278 14.1329 9.33619 14.1344 11.0011C14.1322 12.667 14.5242 14.3114 15.2807 15.8097C16.0372 17.308 17.1383 18.6209 18.5006 19.6486C18.6521 19.5385 18.7908 19.4227 18.9342 19.3014C21.3439 17.2839 22.8667 14.3161 22.8667 11.0011C22.8681 9.33622 22.4757 7.69287 21.7192 6.19558C20.9627 4.69829 19.8621 3.38635 18.5006 2.35917Z" fill="white"/>
</svg>
