<svg width="45" height="14" viewBox="0 0 45 14" fill="none" xmlns="http://www.w3.org/2000/svg" className="visa">
<path d="M16.7925 13.3174L19.0263 0.751953H22.5167L20.3527 13.3174H16.7925Z" fill="white"/>
<path d="M16.7925 13.3174L19.6546 0.751953H22.5167L20.3527 13.3174H16.7925Z" fill="white"/>
<path d="M32.9878 0.891961C32.2897 0.612728 31.1728 0.333496 29.7766 0.333496C26.2862 0.333496 23.7731 2.0787 23.7731 4.59179C23.7731 6.47661 25.5183 7.45393 26.9145 8.0822C28.3106 8.71047 28.7295 9.12932 28.7295 9.68779C28.7295 10.5255 27.6125 10.9443 26.6352 10.9443C25.2391 10.9443 24.4712 10.7349 23.2844 10.2463L22.7958 10.0368L22.3071 12.899C23.1448 13.248 24.6806 13.597 26.2862 13.597C29.986 13.597 32.4293 11.8518 32.4293 9.19913C32.4293 7.73316 31.5218 6.61623 29.4276 5.70872C28.171 5.08045 27.4031 4.73141 27.4031 4.10314C27.4031 3.54467 28.0314 2.98621 29.4276 2.98621C30.6143 2.98621 31.452 3.19563 32.0803 3.47486L32.4293 3.61448L32.9878 0.891961Z" fill="white"/>
<path d="M32.9878 0.891961C32.2897 0.612728 31.1728 0.333496 29.7766 0.333496C26.2862 0.333496 24.4014 2.0787 24.4014 4.59179C24.4014 6.47661 25.5183 7.45393 26.9145 8.0822C28.3106 8.71047 28.7295 9.12932 28.7295 9.68779C28.7295 10.5255 27.6125 10.9443 26.6352 10.9443C25.2391 10.9443 24.4712 10.7349 23.2844 10.2463L22.7958 10.0368L22.3071 12.899C23.1448 13.248 24.6806 13.597 26.2862 13.597C29.986 13.597 32.4293 11.8518 32.4293 9.19913C32.4293 7.73316 31.5218 6.61623 29.4276 5.70872C28.171 5.08045 27.4031 4.73141 27.4031 4.10314C27.4031 3.54467 28.0314 2.98621 29.4276 2.98621C30.6143 2.98621 31.452 3.19563 32.0803 3.47486L32.4293 3.61448L32.9878 0.891961Z" fill="white"/>
<path d="M38.9901 0.751953C38.1524 0.751953 37.5241 0.821762 37.1751 1.65946L31.9395 13.3174H35.7091L36.4072 11.2232H40.8749L41.2937 13.3174H44.6445L41.7126 0.751953H38.9901ZM37.3845 9.12893C37.5939 8.50066 38.7807 5.4291 38.7807 5.4291C38.7807 5.4291 39.0599 4.66121 39.2693 4.17255L39.4787 5.35929C39.4787 5.35929 40.1768 8.50066 40.3164 9.19874H37.3845V9.12893Z" fill="white"/>
<path d="M39.8278 0.751953C38.9901 0.751953 38.3618 0.821762 38.0128 1.65946L31.9395 13.3174H35.7091L36.4072 11.2232H40.8749L41.2937 13.3174H44.6445L41.7126 0.751953H39.8278ZM37.3845 9.12893C37.6637 8.43085 38.7807 5.4291 38.7807 5.4291C38.7807 5.4291 39.0599 4.66121 39.2693 4.17255L39.4787 5.35929C39.4787 5.35929 40.1768 8.50066 40.3164 9.19874H37.3845V9.12893Z" fill="white"/>
<path d="M10.3694 9.54829L10.0204 7.73327C9.39209 5.63903 7.36765 3.33536 5.13379 2.21843L8.27516 13.3877H12.0448L17.6993 0.822266H13.9296L10.3694 9.54829Z" fill="white"/>
<path d="M10.3694 9.54829L10.0204 7.73327C9.39209 5.63903 7.36765 3.33536 5.13379 2.21843L8.27516 13.3877H12.0448L17.6993 0.822266H14.6277L10.3694 9.54829Z" fill="white"/>
<path d="M0.666504 0.751953L1.29478 0.89157C5.7625 1.93869 8.83406 4.5914 10.0208 7.73277L8.76425 1.79908C8.55482 0.961378 7.92655 0.751953 7.15866 0.751953H0.666504Z" fill="white"/>
<path d="M0.666504 0.751953C5.13423 1.79908 8.83406 4.52159 10.0208 7.66296L8.83406 2.70658C8.62463 1.86888 7.92655 1.38023 7.15866 1.38023L0.666504 0.751953Z" fill="white"/>
<path d="M0.666504 0.751953C5.13423 1.79908 8.83406 4.52159 10.0208 7.66296L9.1831 4.94044C8.97367 4.10274 8.69444 3.26505 7.71713 2.91601L0.666504 0.751953Z" fill="white"/>
<path d="M13.8598 9.12925L11.4863 6.75578L10.3694 9.40849L10.0902 7.66328C9.46191 5.56904 7.43747 3.26537 5.20361 2.14844L8.34498 13.3177H12.1146L13.8598 9.12925Z" fill="white"/>
<path d="M20.3517 13.3177L17.35 10.2461L16.7915 13.3177H20.3517Z" fill="white"/>
<path d="M28.38 8.98975C28.6592 9.26898 28.7988 9.4784 28.729 9.75764C28.729 10.5953 27.6121 11.0142 26.6347 11.0142C25.2386 11.0142 24.4707 10.8048 23.284 10.3161L22.7953 10.1067L22.3066 12.9688C23.1443 13.3179 24.6801 13.6669 26.2857 13.6669C28.5196 13.6669 30.3346 13.0386 31.3817 11.9217L28.38 8.98975Z" fill="white"/>
<path d="M32.4287 13.3177H35.7097L36.4078 11.2235H40.8755L41.2943 13.3177H44.6451L43.4584 8.22172L39.2699 4.17285L39.4793 5.28978C39.4793 5.28978 40.1774 8.43115 40.317 9.12923H37.3851C37.6643 8.43115 38.7813 5.4294 38.7813 5.4294C38.7813 5.4294 39.0605 4.66151 39.2699 4.17285" fill="white"/>
</svg>
