<svg width="16" height="16" viewBox="0 0 16 16" fill="none" xmlns="http://www.w3.org/2000/svg">
<path d="M7.23485 8.00277L0.152568 15.1348C-0.0441892 15.3329 -0.0441892 15.6539 0.152568 15.8521C0.250822 15.9513 0.379827 16.0006 0.508582 16.0006C0.637587 16.0006 0.766342 15.9513 0.864596 15.8521L8.00012 8.66642L15.1357 15.8521C15.2342 15.9513 15.3629 16.0006 15.4917 16.0006C15.6204 16.0006 15.7494 15.9513 15.8477 15.8521C16.0444 15.6539 16.0444 15.3329 15.8477 15.1348L8.76565 8.00277L15.8524 0.865698C16.0492 0.667558 16.0492 0.346556 15.8524 0.148416C15.6557 -0.0494721 15.3369 -0.0494721 15.1404 0.148416L8.00037 7.33911L0.859596 0.148668C0.662838 -0.0492203 0.344326 -0.0492203 0.147568 0.148668C-0.0491894 0.346808 -0.0491894 0.66781 0.147568 0.86595L7.23485 8.00277Z" fill="#373F41"/>
</svg>
